<svg width="150" height="150" viewBox="0 0 150 150" fill="none" xmlns="http://www.w3.org/2000/svg">
<g clip-path="url(#clip0_7136_22527)">
<path d="M31.4912 0.0214844L138.425 23.437H149.997V150H28.708C26.6878 150 24.7503 149.197 23.3218 147.768C21.8933 146.34 21.0908 144.403 21.0908 142.382V110.492L31.2665 0.352671L31.4912 0.0214844Z" fill="#36697F"/>
<path d="M31.4912 0H131.979C134 0 135.937 0.802523 137.366 2.23102C138.794 3.65952 139.597 5.59698 139.597 7.61719V105.469H31.4912V0Z" fill="#37A5CC"/>
<path d="M8.63965 119.238L31.4912 105.469V0L8.63965 13.7695V119.238Z" fill="#7DC6DD"/>
<path d="M70.7698 133.166H64.1253L62.8912 138.007H57.3857L63.7139 115.858H71.0863L77.7624 138.007H72.1304L70.7698 133.166ZM67.3843 119.497L65.1378 129.053H69.694L67.3843 119.497Z" fill="white"/>
<path d="M88.2321 129.179V138.007H82.695V129.211L75.7021 115.858H81.5243L85.5744 125.192L89.5927 115.858H95.1932L88.2321 129.179Z" fill="white"/>
<path d="M106.678 133.166H100.034L98.7994 138.007H93.2939L99.6221 115.858H106.994L113.671 138.007H108.039L106.678 133.166ZM103.292 119.497L101.046 129.053H105.602L103.292 119.497Z" fill="white"/>
<path d="M115.687 23.6016V82.0496H101.827V44.3088L92.0576 81.966V82.0495H78.2805L67.9269 42.8059V82.0496H55.4023V23.6016H73.7717L85.5448 70.527L97.9024 23.7686L97.8189 23.6016L115.687 23.6016Z" fill="white"/>
</g>
<defs>
<clipPath id="clip0_7136_22527">
<rect width="141.357" height="150" fill="white" transform="translate(8.63965)"/>
</clipPath>
</defs>
</svg>
