<?xml version="1.0" encoding="UTF-8" standalone="no"?>
<!-- Created with Inkscape (http://www.inkscape.org/) -->

<svg
   width="480mm"
   height="480mm"
   viewBox="0 0 480 480"
   version="1.1"
   id="svg1"
   xml:space="preserve"
   inkscape:version="1.4.3 (0d15f75, 2025-12-25)"
   sodipodi:docname="rez_manager.svg"
   xmlns:inkscape="http://www.inkscape.org/namespaces/inkscape"
   xmlns:sodipodi="http://sodipodi.sourceforge.net/DTD/sodipodi-0.dtd"
   xmlns="http://www.w3.org/2000/svg"
   xmlns:svg="http://www.w3.org/2000/svg"><sodipodi:namedview
     id="namedview1"
     pagecolor="#ffffff"
     bordercolor="#000000"
     borderopacity="0.25"
     inkscape:showpageshadow="2"
     inkscape:pageopacity="0.0"
     inkscape:pagecheckerboard="0"
     inkscape:deskcolor="#d1d1d1"
     inkscape:document-units="mm"
     inkscape:zoom="0.3001521"
     inkscape:cx="847.90345"
     inkscape:cy="911.20469"
     inkscape:window-width="1920"
     inkscape:window-height="1017"
     inkscape:window-x="-8"
     inkscape:window-y="-8"
     inkscape:window-maximized="1"
     inkscape:current-layer="layer2" /><defs
     id="defs1"><inkscape:path-effect
       effect="powerstroke"
       message=""
       id="path-effect40"
       is_visible="true"
       lpeversion="1.3"
       scale_width="1"
       interpolator_type="CentripetalCatmullRom"
       interpolator_beta="0.2"
       start_linecap_type="zerowidth"
       end_linecap_type="zerowidth"
       offset_points="0.060861356,1.0825 | 0.47447207,2.183658 | 0.93493911,1.0825"
       linejoin_type="round"
       miter_limit="4"
       not_jump="false"
       sort_points="true" /><inkscape:path-effect
       effect="mirror_symmetry"
       start_point="188.49999,0.22755435"
       end_point="188.49999,431.3623"
       center_point="188.49999,215.79493"
       id="path-effect25"
       is_visible="true"
       lpeversion="1.2"
       lpesatellites=""
       mode="vertical"
       discard_orig_path="false"
       fuse_paths="true"
       oposite_fuse="false"
       split_items="false"
       split_open="false"
       link_styles="false" /><inkscape:path-effect
       effect="taper_stroke"
       start_shape="center | center"
       end_shape="center | center"
       id="path-effect24"
       is_visible="true"
       lpeversion="1"
       stroke_width="2"
       subpath="1"
       attach_start="0.2"
       end_offset="0.2"
       start_smoothing="1"
       end_smoothing="1"
       jointype="extrapolated"
       miter_limit="100" /><inkscape:path-effect
       effect="taper_stroke"
       start_shape="center | center"
       end_shape="center | center"
       id="path-effect23"
       is_visible="true"
       lpeversion="1"
       stroke_width="2"
       subpath="1"
       attach_start="0.2"
       end_offset="0.2"
       start_smoothing="1"
       end_smoothing="1"
       jointype="extrapolated"
       miter_limit="100" /><inkscape:path-effect
       effect="taper_stroke"
       start_shape="center | center"
       end_shape="center | center"
       id="path-effect22"
       is_visible="true"
       lpeversion="1"
       stroke_width="2"
       subpath="1"
       attach_start="0.2"
       end_offset="0.2"
       start_smoothing="1"
       end_smoothing="1"
       jointype="round"
       miter_limit="100" /><inkscape:path-effect
       effect="taper_stroke"
       start_shape="center | center"
       end_shape="center | center"
       id="path-effect21"
       is_visible="true"
       lpeversion="1"
       stroke_width="2.165"
       subpath="1"
       attach_start="0.2"
       end_offset="0.2"
       start_smoothing="0.5"
       end_smoothing="1.7"
       jointype="extrapolated"
       miter_limit="100" /><inkscape:path-effect
       effect="mirror_symmetry"
       start_point="188.49999,0.22755435"
       end_point="188.49999,431.3623"
       center_point="188.49999,215.79493"
       id="path-effect18"
       is_visible="true"
       lpeversion="1.2"
       lpesatellites=""
       mode="vertical"
       discard_orig_path="false"
       fuse_paths="true"
       oposite_fuse="false"
       split_items="false"
       split_open="false"
       link_styles="false" /><inkscape:path-effect
       effect="mirror_symmetry"
       start_point="188.49999,0.22755435"
       end_point="188.49999,431.3623"
       center_point="188.49999,215.79493"
       id="path-effect17"
       is_visible="true"
       lpeversion="1.2"
       lpesatellites=""
       mode="vertical"
       discard_orig_path="false"
       fuse_paths="true"
       oposite_fuse="false"
       split_items="false"
       split_open="false"
       link_styles="false" /><inkscape:path-effect
       effect="mirror_symmetry"
       start_point="188.49999,0.22755435"
       end_point="188.49999,431.3623"
       center_point="188.49999,215.79493"
       id="path-effect15"
       is_visible="true"
       lpeversion="1.2"
       lpesatellites=""
       mode="vertical"
       discard_orig_path="false"
       fuse_paths="false"
       oposite_fuse="false"
       split_items="false"
       split_open="false"
       link_styles="false" /><inkscape:path-effect
       effect="mirror_symmetry"
       start_point="188.49999,-2.070221"
       end_point="188.49999,467.43552"
       center_point="188.49999,232.68265"
       id="path-effect14"
       is_visible="true"
       lpeversion="1.2"
       lpesatellites=""
       mode="vertical"
       discard_orig_path="false"
       fuse_paths="true"
       oposite_fuse="false"
       split_items="false"
       split_open="false"
       link_styles="false" /><inkscape:path-effect
       effect="mirror_symmetry"
       start_point="187.33471,238.87108"
       end_point="187.33471,420.78836"
       center_point="187.33471,329.82972"
       id="path-effect12"
       is_visible="true"
       lpeversion="1.2"
       lpesatellites=""
       mode="free"
       discard_orig_path="false"
       fuse_paths="true"
       oposite_fuse="false"
       split_items="false"
       split_open="false"
       link_styles="false" /><inkscape:path-effect
       effect="mirror_symmetry"
       start_point="187.33471,238.87108"
       end_point="187.33471,420.78836"
       center_point="187.33471,329.82972"
       id="path-effect10"
       is_visible="true"
       lpeversion="1.2"
       lpesatellites=""
       mode="free"
       discard_orig_path="false"
       fuse_paths="true"
       oposite_fuse="false"
       split_items="false"
       split_open="false"
       link_styles="false" /><inkscape:path-effect
       effect="mirror_symmetry"
       start_point="188.49999,-47.770307"
       end_point="188.49999,421.73543"
       center_point="188.49999,186.98256"
       id="path-effect8"
       is_visible="true"
       lpeversion="1.2"
       lpesatellites=""
       mode="vertical"
       discard_orig_path="false"
       fuse_paths="true"
       oposite_fuse="false"
       split_items="false"
       split_open="false"
       link_styles="false" /><inkscape:path-effect
       effect="taper_stroke"
       start_shape="center | center"
       end_shape="center | center"
       id="path-effect6"
       is_visible="true"
       lpeversion="1"
       stroke_width="0.36000001"
       subpath="1"
       attach_start="0.2"
       end_offset="0.2"
       start_smoothing="0.5"
       end_smoothing="0.5"
       jointype="extrapolated"
       miter_limit="100" /><inkscape:path-effect
       effect="powerstroke"
       message=""
       id="path-effect4"
       is_visible="true"
       lpeversion="1.3"
       scale_width="1"
       interpolator_type="CentripetalCatmullRom"
       interpolator_beta="0.2"
       start_linecap_type="zerowidth"
       end_linecap_type="zerowidth"
       offset_points="2,0.18000001"
       linejoin_type="round"
       miter_limit="4"
       not_jump="false"
       sort_points="true" /><inkscape:path-effect
       effect="bspline"
       id="path-effect3"
       is_visible="true"
       lpeversion="1.3"
       weight="33.333333"
       steps="2"
       helper_size="0"
       apply_no_weight="true"
       apply_with_weight="true"
       only_selected="false"
       uniform="false" /><inkscape:path-effect
       effect="taper_stroke"
       start_shape="center | center"
       end_shape="center | center"
       id="path-effect1"
       is_visible="true"
       lpeversion="1"
       stroke_width="0.36"
       subpath="1"
       attach_start="0.2"
       end_offset="0.2"
       start_smoothing="0.5"
       end_smoothing="0.5"
       jointype="extrapolated"
       miter_limit="100" /><inkscape:path-effect
       effect="fill_between_many"
       method="bsplinespiro"
       autoreverse="false"
       close="false"
       join="false"
       linkedpaths="#path1,0,1"
       id="path-effect2"
       is_visible="true"
       lpeversion="0" /><inkscape:path-effect
       effect="fill_between_many"
       method="bsplinespiro"
       autoreverse="false"
       close="false"
       join="false"
       linkedpaths="#path1,0,1"
       id="path-effect5"
       is_visible="true"
       lpeversion="0" /><inkscape:path-effect
       effect="fill_between_many"
       method="bsplinespiro"
       autoreverse="false"
       close="false"
       join="false"
       linkedpaths="#path1,0,1"
       id="path-effect7"
       is_visible="true"
       lpeversion="0" /></defs><g
     inkscape:groupmode="layer"
     id="layer2"
     inkscape:label="图层 2"
     style="display:inline;opacity:1"
     transform="translate(51.500007,0.31759518)"><g
       id="g25"
       inkscape:label="lower_frame"
       style="display:inline"
       transform="translate(0,-25)"><path
         style="display:inline;fill:#fa692a;fill-opacity:0.996078;stroke:#000000;stroke-width:2.165;stroke-dasharray:none;stroke-opacity:1"
         d="m 188.49428,420.64953 c -4.32996,0.0544 -10.17992,-0.54753 -15.68086,-2.36423 -16.18624,-5.34557 -154.702633,-68.86098 -163.2791915,-73.50699 -5.0868468,-2.75559 -7.245783,-9.53998 -6.95741,-14.68785 0.3605933,-6.43711 4.4885174,-10.66341 9.2765465,-13.39945 4.681661,-2.67526 141.082195,-62.70632 175.496815,-77.83913 0.45837,-0.20156 0.83829,-0.36852 1.14981,-0.50534 0.31152,0.13682 0.69144,0.30378 1.14982,0.50534 34.41462,15.13281 170.81515,75.16387 175.49681,77.83913 4.78803,2.73604 8.91595,6.96234 9.27655,13.39945 0.28837,5.14787 -1.87057,11.93226 -6.95741,14.68785 -8.57656,4.64601 -147.09295,68.16142 -163.27919,73.50699 -5.50094,1.8167 -11.3509,2.41863 -15.68086,2.36423 m 1.1596,-181.77845 c 0,0 -0.57746,-0.25525 -1.16532,-0.51553 -0.58785,0.26028 -1.16531,0.51553 -1.16531,0.51553"
         id="path7"
         sodipodi:nodetypes="csssssc"
         inkscape:label="low_rect_frame1"
         transform="translate(0,77.699849)" /><path
         style="display:inline;fill:#0ec29a;fill-opacity:0.996078;stroke:#000000;stroke-width:2.165;stroke-dasharray:none;stroke-opacity:1"
         d="m 188.49999,420.90739 c -4.43127,0.0108 -9.52173,-0.57065 -15.77767,-2.52452 -6.31034,-1.97085 -154.611533,-68.95855 -163.1880915,-73.60456 -5.0868468,-2.75559 -7.245783,-9.53998 -6.95741,-14.68785 0.3605933,-6.43711 4.4885174,-10.66341 9.2765465,-13.39945 4.681661,-2.67526 141.082195,-62.70632 175.496815,-77.83913 0.45837,-0.20156 0.83829,-0.36852 1.14981,-0.50534 0.31152,0.13682 0.69144,0.30378 1.14982,0.50534 34.41462,15.13281 170.81515,75.16387 175.49681,77.83913 4.78803,2.73604 8.91595,6.96234 9.27655,13.39945 0.28837,5.14787 -1.87057,11.93226 -6.95741,14.68785 -8.57656,4.64601 -156.87775,71.63371 -163.18809,73.60456 -6.25594,1.95387 -11.34641,2.53533 -15.77768,2.52452 z m 1.16532,-182.03631 c 0,0 -0.57746,-0.25525 -1.16532,-0.51553 -0.58785,0.26028 -1.16531,0.51553 -1.16531,0.51553"
         id="path12"
         sodipodi:nodetypes="csssssc"
         inkscape:label="low_rect_frame2"
         transform="translate(0,31.999763)" /></g><g
       id="g27"
       inkscape:label="rocket"
       transform="matrix(1.089,0,0,1.089,-16.7765,-24.006493)"><path
         style="display:inline;fill:#0e54c2;fill-opacity:0.996078;stroke:#000000;stroke-width:2.165;stroke-dasharray:none;stroke-opacity:1"
         d="m 129.73251,197.14969 c 0,0 -9.08681,7.38775 -13.66564,13.39234 -4.57883,6.00459 -10.60546,15.77843 -13.11902,24.78036 -3.116849,11.16254 -2.76241,23.0285 -2.00429,34.71075 0.75812,11.68225 5.00886,28.05296 7.65276,36.62392 0.99869,3.23755 2.89741,8.1393 5.10184,8.19938 2.46058,0.0671 2.77144,-3.50092 3.37085,-7.19724 0.59941,-3.69632 2.0288,-12.0179 4.82854,-18.31196 2.79974,-6.29406 7.44635,-13.27765 10.9325,-17.03649 3.48615,-3.75885 10.20286,-9.28823 17.21872,-14.03007 -3.37004,-8.47713 -7.19724,-17.03651 -10.47699,-26.87577 -3.27976,-9.83927 -9.83927,-34.25522 -9.83927,-34.25522 z m 117.53497,0 c 0,0 9.08681,7.38775 13.66564,13.39234 4.57883,6.00459 10.60546,15.77843 13.11902,24.78036 3.11685,11.16254 2.76241,23.0285 2.00429,34.71075 -0.75812,11.68225 -5.00886,28.05296 -7.65276,36.62392 -0.99869,3.23755 -2.89741,8.1393 -5.10184,8.19938 -2.46058,0.0671 -2.77144,-3.50092 -3.37085,-7.19724 -0.59941,-3.69632 -2.0288,-12.0179 -4.82854,-18.31196 -2.79974,-6.29406 -7.44635,-13.27765 -10.9325,-17.03649 -3.48615,-3.75885 -10.20286,-9.28823 -17.21872,-14.03007 3.37004,-8.47713 7.19724,-17.03651 10.47699,-26.87577 3.27976,-9.83927 9.83927,-34.25522 9.83927,-34.25522 z"
         id="path14"
         sodipodi:nodetypes="czazsszsscsc"
         transform="translate(0,26.343644)" /><path
         style="display:inline;opacity:1;fill:#0e53c2;fill-opacity:1;stroke:#000000;stroke-width:2.165;stroke-dasharray:none;stroke-opacity:1"
         d="m 161.1635,295.55684 c -1.61898,2.95298 -2.6888,7.3143 -3.00645,13.75674 4.54979,0.64921 20.24798,0.91319 30.37922,0.94243 10.04117,0.029 23.2748,0.24281 30.11403,-0.76023 -0.60125,-5.1216 -1.74973,-9.46661 -3.18865,-13.75675 -7.73464,0.78602 -18.45784,1.04061 -27.6957,1.00217 -8.87619,-0.0369 -18.98643,-0.25129 -26.60245,-1.18436 z"
         id="path17"
         sodipodi:nodetypes="ccaccac" /><path
         style="display:inline;fill:#0e53c2;fill-opacity:1;stroke:#000000;stroke-width:2.165;stroke-dasharray:none;stroke-opacity:1"
         d="m 188.5052,66.460583 c 5.14739,0.136656 14.55947,-0.740914 20.88214,-2.345176 8.34669,-2.117819 15.07994,-5.876427 20.23103,-8.353743 7.77737,14.21282 13.34888,32.378521 16.97574,49.412386 3.23246,15.18156 4.3172,30.86208 4.12291,46.38274 -0.22508,17.98062 -1.92134,36.11283 -6.11995,53.59783 -5.13272,21.37505 -11.65103,43.59307 -23.08598,61.77521 -9.79946,2.92967 -31.1968,3.13876 -33.0111,3.15129 -1.81429,-0.0125 -23.21163,-0.22162 -33.01109,-3.15129 -11.43495,-18.18214 -17.95326,-40.40016 -23.08598,-61.77521 -4.19861,-17.485 -5.89487,-35.61721 -6.11995,-53.59783 -0.19429,-15.52066 0.89045,-31.20118 4.12291,-46.38274 3.62686,-17.033865 9.19837,-35.199566 16.97574,-49.412386 5.15109,2.477316 11.88434,6.235924 20.23103,8.353743 6.32267,1.604262 15.73475,2.481832 20.88214,2.345176"
         id="path18"
         sodipodi:nodetypes="ccaaacsc"
         transform="translate(0,26.343644)" /><path
         style="display:inline;fill:#0e53c2;fill-opacity:1;stroke:#000000;stroke-width:2.165;stroke-dasharray:none;stroke-opacity:1"
         d="m 188.49999,193.18927 c -1.31985,0.11274 -4.15235,3.50063 -4.8789,5.40229 -1.44716,3.78782 -2.83481,15.90861 -3.52354,23.94765 -1.13004,13.19016 -1.03183,26.46477 -0.98651,39.70317 0.0359,10.47526 0.13017,20.97069 0.99566,31.41021 0.79029,9.53232 2.37231,22.14784 3.8264,28.43881 0.55104,2.384 2.9411,5.0177 4.56689,5.10801 1.6258,-0.0903 4.01586,-2.72401 4.5669,-5.10801 1.45409,-6.29097 3.03611,-18.90649 3.8264,-28.43881 0.86549,-10.43952 0.95976,-20.93495 0.99566,-31.41021 0.0453,-13.2384 0.14353,-26.51301 -0.98651,-39.70317 -0.68873,-8.03904 -2.07638,-20.15983 -3.52354,-23.94765 -0.72655,-1.90166 -3.55906,-5.28955 -4.87891,-5.40229 z"
         id="path15"
         sodipodi:nodetypes="csaaasc"
         transform="translate(0,26.343644)" /><g
         id="g24"
         inkscape:label="left line"
         style="display:inline"
         transform="translate(0,26.343644)"><path
           style="display:inline;fill:#000000;fill-opacity:1;fill-rule:nonzero;stroke:none;stroke-width:2.165;stroke-dasharray:none;stroke-opacity:1"
           d="m 152.89081,68.563181 c 0.70454,-1.439659 -0.20001,-1.874839 -0.20001,-1.874839 0,0 -0.8978,-0.431893 -1.59642,0.995722 -0.90934,1.858198 -1.77185,3.610034 -2.51458,5.547471 -0.76936,2.006885 -1.47133,3.898551 -2.03274,6.10978 -0.43727,1.722365 0.58637,1.923715 0.58637,1.923715 0,0 0.94256,0.181513 1.35213,-1.431545 0.53069,-2.090221 1.19709,-3.891485 1.96172,-5.886039 0.70477,-1.838436 1.52941,-3.516308 2.44353,-5.384265 z"
           id="path19"
           sodipodi:nodetypes="cac"
           inkscape:original-d="m 152.6908,66.688342 c -1.18436,2.459816 -2.27075,4.536479 -3.17726,6.90115 -0.95886,2.501204 -1.78793,4.7602 -2.38011,7.675538"
           inkscape:path-effect="#path-effect24" /><path
           style="display:inline;fill:#000000;fill-opacity:1;fill-rule:nonzero;stroke:none;stroke-width:2.165;stroke-dasharray:none;stroke-opacity:1"
           d="m 144.3007,95.037605 c 0.78133,-2.546049 -0.17399,-2.83922 -0.17399,-2.83922 0,0 -0.95532,-0.293171 -1.73666,2.252878 l -0.005,0.01265 c -1.94432,6.652682 -6.83847,25.454792 -7.27552,47.456722 -0.44463,22.38301 3.09903,46.05988 4.53162,54.61497 0.19953,1.19159 0.46083,1.93845 0.70957,2.40208 0.16006,0.29833 0.31544,0.48086 0.44892,0.59213 0,0 0,0 0,0 0.18334,0.16792 0.34894,0.17551 0.39605,0.17303 0,0 0,0 0,0 0,0 0,0 0,0 0,0 0,0 0,0 0,0 0,0 0,0 0,0 0,0 0,0 0,0 0,0 0,0 0,0 0,0 0,0 0,0 0,0 0,0 0,0 0,0 0,0 0,0 0,0 0,0 0,0 0,0 0,0 0,0 0,0 0,0 0,0 0,0 0,0 0,0 0,0 0,0 0,0 0,0 0,0 0,0 0,0 0,0 0,0 0,0 0,0 0,0 0,0 0,0 0,0 0,0 0,0 0,0 0,0 0,0 0,0 0,0 0,0 0,0 0,0 0,0 0,0 0,0 0,0 0,0 0,0 0,0 0,0 0,0 0,0 0,0 0,0 0,0 0.0194,-0.003 0.0155,-0.002 0.0155,-0.002 0,0 -0.004,0.001 0.0152,-0.004 0,0 0,0 0,0 0,0 0,0 0,0 0,0 0,0 0,0 0,0 0,0 0,0 0,0 0,0 0,0 0,0 0,0 0,0 0,0 0,0 0,0 0,0 0,0 0,0 0,0 0,0 0,0 0,0 0,0 0,0 0,0 0,0 0,0 0,0 0,0 0,0 0,0 0,0 0,0 0,0 0,0 0,0 0,0 0,0 0,0 0,0 0,0 0,0 0,0 0,0 0,0 0,0 0,0 0,0 0,0 0,0 0,0 0,0 0,0 0,0 0,0 0,0 0,0 0,0 0,0 0,0 0,0 0,0 0,0 0,0 0,0 0,0 0,0 0,0 0,0 0,0 0,0 0,0 0.0448,-0.0149 0.19608,-0.0807 0.30768,-0.30242 0,0 0,0 0,0 0.0853,-0.15047 0.1664,-0.37423 0.21354,-0.70677 0.0735,-0.51876 0.0643,-1.29847 -0.13396,-2.48255 -1.42491,-8.50924 -4.94529,-32.05704 -4.50455,-54.24494 0.43204,-21.74954 5.2805,-40.38262 7.19561,-46.935391 z"
           id="path20"
           sodipodi:nodetypes="csc"
           inkscape:original-d="m 144.12699,92.197546 c 0,0 -7.47373,22.384834 -8.01718,49.742944 -0.5539,27.8842 5.10185,57.76012 5.10185,57.76012"
           inkscape:path-effect="#path-effect23" /><path
           style="display:inline;fill:#000000;fill-opacity:1;fill-rule:nonzero;stroke:none;stroke-width:2.165;stroke-dasharray:none;stroke-opacity:1"
           d="m 144.65656,211.58145 c -0.0984,-0.51767 -0.28123,-0.83254 -0.47747,-1.02342 -0.29641,-0.41017 -0.78067,-0.28786 -0.78067,-0.28786 0,0 -0.49691,0.054 -0.6292,0.54574 -0.11567,0.24914 -0.17427,0.61144 -0.0787,1.13271 0.69435,3.71786 2.64267,13.79145 4.30699,19.20359 1.5103,4.91129 4.73626,12.42144 6.29165,15.98922 0.83039,1.90488 1.74916,1.50982 1.74916,1.50982 0,0 0.91869,-0.395 0.0842,-2.30908 -1.5745,-3.61163 -4.74533,-11.00404 -6.21334,-15.77782 -1.61501,-5.25177 -3.55135,-15.22786 -4.25264,-18.9829 z"
           id="path21"
           sodipodi:nodetypes="cac"
           inkscape:original-d="m 143.39816,210.26871 c 0,0 2.48912,13.87093 4.55521,20.58957 1.87643,6.10189 6.36679,16.1139 7.08498,17.79297"
           inkscape:path-effect="#path-effect22" /></g><path
         style="fill:#1753b8;fill-opacity:0.996078;stroke:#000000;stroke-width:2.165;stroke-dasharray:none;stroke-opacity:1"
         d="m 188.49999,1.3100544 c -3.55669,0.00122 -7.12373,4.5590731 -9.52431,7.2220269 -1.94076,2.1528757 -8.18632,9.6158067 -11.9481,14.6813917 -4.15482,5.594847 -8.64978,12.089472 -11.70794,17.320732 -3.4665,5.929743 -7.79678,15.382757 -7.79678,15.382757 0,0 12.73534,6.045107 19.51941,7.794877 6.95746,1.794493 17.38644,2.724422 21.45772,2.706231 4.07129,0.01819 14.50027,-0.911738 21.45773,-2.706231 6.78407,-1.74977 19.51941,-7.794877 19.51941,-7.794877 0,0 -4.33028,-9.453014 -7.79678,-15.382757 -3.05816,-5.23126 -7.55312,-11.725885 -11.70794,-17.320732 -3.76178,-5.065585 -10.00734,-12.528516 -11.9481,-14.6813917 -2.40059,-2.6629538 -5.96762,-7.2208083 -9.52432,-7.2220269 z"
         id="path25"
         sodipodi:nodetypes="csascsc"
         transform="translate(0,26.343644)" /><path
         id="path26"
         style="fill:#1753b8;fill-opacity:0.996078;stroke:#000000;stroke-width:2.22658"
         d="m 216.2066,141.6129 a 27.733915,27.733915 0 0 1 -27.73391,27.73392 27.733915,27.733915 0 0 1 -27.73392,-27.73392 27.733915,27.733915 0 0 1 27.73392,-27.73392 27.733915,27.733915 0 0 1 27.73391,27.73392 z" /><path
         id="path27"
         style="fill:#f2f2f2;fill-opacity:0.996078;stroke:#000000;stroke-width:2.165"
         d="m 207.1762,141.33441 a 19.004036,19.004036 0 0 1 -19.00404,19.00404 19.004036,19.004036 0 0 1 -19.00403,-19.00404 19.004036,19.004036 0 0 1 19.00403,-19.00403 19.004036,19.004036 0 0 1 19.00404,19.00403 z" /></g></g></svg>
